<?xml version="1.0" encoding="utf-8"?>
<!-- Generator: Adobe Illustrator 24.1.1, SVG Export Plug-In . SVG Version: 6.00 Build 0)  -->
<svg version="1.1" id="Layer_1" xmlns="http://www.w3.org/2000/svg" xmlns:xlink="http://www.w3.org/1999/xlink" x="0px" y="0px"
	 viewBox="0 0 491.4 609.1" style="enable-background:new 0 0 491.4 609.1;" xml:space="preserve">
<style type="text/css">
	.st0{opacity:0.7;fill:#DFDFDF;}
	.st1{fill:#BFC5C7;}
	.st2{fill:#145984;}
	.st3{fill:#424148;}
	.st4{fill:#9FA4A6;}
	.st5{opacity:0.57;fill:#FFFFFF;}
	.st6{fill:#84888A;}
	.st7{fill:#D7DEE0;}
	.st8{opacity:0.68;fill:#84888A;}
	.st9{fill:#2E392F;}
	.st10{fill:#0C0C0C;}
	.st11{fill:url(#SVGID_1_);}
	.st12{opacity:0.19;fill:#FFFFFF;}
	.st13{fill:#16141D;}
	.st14{fill:url(#SVGID_2_);}
	.st15{fill:#FFFFFF;}
	.st16{opacity:6.000000e-02;fill:#FFFFFF;}
	.st17{fill:none;}
	.st18{fill-rule:evenodd;clip-rule:evenodd;stroke:#000000;stroke-width:2;stroke-miterlimit:2.6131;}
	.st19{fill-rule:evenodd;clip-rule:evenodd;fill:#EEEDED;}
	.st20{fill-rule:evenodd;clip-rule:evenodd;fill:#145984;stroke:#145984;stroke-width:2.0169;stroke-miterlimit:2.6131;}
	.st21{fill:none;stroke:#145984;stroke-width:2.0169;stroke-miterlimit:2.6131;}
</style>
<g>
	<ellipse class="st0" cx="206.4" cy="583.8" rx="205.3" ry="24.8"/>
	<g>
		<g>
			<path class="st1" d="M206.5,271.4c0,0,17.7,30.6,33,30.1c15.3-0.5,133.5-11.7,174.1-72.7c11.5-17.3,32.4-58.8,32.1-68.2
				c-0.3-9.4-43-37-53.3-26.1c-10.3,10.9-36.8,67.1-36.8,67.1s-76.6,0-100.2,17.8C231.7,237.3,206.5,271.4,206.5,271.4z"/>
			<path class="st2" d="M427.4,204.8c-8.1-1.4-16.6-4.6-24.7-8.6L380.2,239l-36,15l-125,34.8c-3.7-4.1-6.8-8.5-9.1-11.8l120.4-33.5
				c-8.1-14.8-6.5-29.6-2-40.8c6-0.4,11.4-0.6,15.7-0.8c-4.3,7.2-10.2,21.8-0.3,37.3l26.4-11l20.4-38.7
				c-8.4-5.1-15.9-10.6-21.7-15.1c2.1-4.1,4.3-8.3,6.5-12.5c15.2,12.1,40.2,28.8,58.5,29.9C431.9,196.1,429.7,200.5,427.4,204.8z"/>
			<g>
				<path class="st3" d="M284.3,278.8c0.7-0.7,0.7-1.9-0.1-2.6c-0.7-0.7-1.9-0.7-2.6,0.1c-0.7,0.7-0.7,1.9,0.1,2.6
					C282.5,279.5,283.6,279.5,284.3,278.8z"/>
				<path class="st3" d="M302.1,273.9c0.7-0.7,0.7-1.9-0.1-2.6c-0.7-0.7-1.9-0.7-2.6,0.1c-0.7,0.7-0.7,1.9,0.1,2.6
					C300.3,274.7,301.4,274.7,302.1,273.9z"/>
				<path class="st3" d="M319,270c0.7-0.7,0.7-1.9-0.1-2.6c-0.7-0.7-1.9-0.7-2.6,0.1c-0.7,0.7-0.7,1.9,0.1,2.6
					C317.1,270.8,318.3,270.7,319,270z"/>
			</g>
		</g>
		<path class="st4" d="M115.4,377c0,0,65,49.2,65,55.8c0,6.7,16.6,39.4,7.5,48.5c-9.1,9.1-64.1,109.8-64.1,109.8s-24.2,5.7-55-5.5
			L115.4,377z"/>
		<path class="st2" d="M132.2,575.7l-30.9-23.2L72.9,567l3.9-17.5l19.7-10.1l42.6-115.2l12.9,4.8L110.3,542l28.7,21.6
			C136.5,568,134.2,572.1,132.2,575.7z"/>
		<path class="st4" d="M317,377l24.2,5.8c0,0-26.7,190.8-35,199.1c-8.3,8.3-60,0-60,0v-91.3C246.2,490.6,282.9,392,317,377z"/>
		<path class="st2" d="M246.2,537.5l55.5-7.1l19.5-146l13.7,1.8l-19.6,146.7l2.3,1.4c-0.9,5.1-1.8,9.9-2.7,14.4l-8.5-5l-60.2,7.7
			V537.5z"/>
		<path class="st5" d="M182,348.7c11.8,0,21.4-9.7,21.4-21.6c0-11.9-9.6-21.6-21.4-21.6c-11.8,0-21.4,9.7-21.4,21.6
			C160.6,339,170.2,348.7,182,348.7z"/>
		<path class="st6" d="M317,377l24.2,5.8c0,0-2.9,21.1-7.2,49.5c-25.1,31.7-67.3,70.8-75.5,79c-2.4,2.4-6.8,3.8-12.3,4.5v-25.3
			C246.2,490.6,282.9,392,317,377z"/>
		<path class="st6" d="M103.2,431.5l12.2-54.5c0,0,65,49.2,65,55.8c0,6.7,16.6,39.4,7.5,48.5c-2.5,2.5-8.4,11.9-15.8,24.2
			C150.4,490.9,103.2,431.5,103.2,431.5z"/>
		<path class="st7" d="M259.3,225.5c0,4.1,81.9,134.1,81.9,157.4c0,23.3-75.8,93.3-86.6,104.1c-10.8,10.8-68.3,0-68.3,0
			s-81.6-46.7-87.5-69.1c-5.8-22.5-20.8-120.8-20.8-145c0-24.2,33.3-55,90.8-59.1C226.2,209.6,259.3,225.5,259.3,225.5z"/>
		<path class="st8" d="M110.5,230.2c-8.8,9.2-13.5,19.1-13.5,28.1c0,24.2,15,122.5,20.8,145c5.8,22.5,72.7,73.8,72.7,73.8
			s56.2,3.1,75.3-1.1c-5.4,5.2-9.4,9.1-11.4,11c-10.8,10.8-68.3,0-68.3,0s-81.6-46.7-87.5-69.1c-5.8-22.5-20.8-120.8-20.8-145
			C77.9,258.7,89.4,242.2,110.5,230.2z"/>
		<path class="st9" d="M87.3,354c-5-32.9-9.4-67.9-9.4-81.1c0-16.2,15.1-35.5,42.4-47.6c11.8,10.6,18.9,39.8,9,73.3
			C120.6,328.5,102.3,348.3,87.3,354z"/>
		<g>
			<path class="st10" d="M216,375.7c33.7,0,61-27.6,61-61.7c0-34.1-27.3-61.7-61-61.7c-33.7,0-61,27.6-61,61.7
				C155,348.1,182.3,375.7,216,375.7z"/>
			
				<radialGradient id="SVGID_1_" cx="275.3763" cy="314.0516" r="54.264" fx="268.8712" fy="318.5641" gradientTransform="matrix(-1 0 0 1 491.4221 0)" gradientUnits="userSpaceOnUse">
				<stop  offset="8.379889e-03" style="stop-color:#FFFFFF"/>
				<stop  offset="0.1663" style="stop-color:#FBFBFB;stop-opacity:0.9761"/>
				<stop  offset="0.6704" style="stop-color:#F9F9F9;stop-opacity:0.9"/>
				<stop  offset="1" style="stop-color:#231F20"/>
			</radialGradient>
			<ellipse class="st11" cx="216" cy="314.1" rx="54" ry="54.5"/>
			<path class="st12" d="M195.2,314.1c11.8,0,21.4-9.7,21.4-21.6c0-11.9-9.6-21.6-21.4-21.6c-11.8,0-21.4,9.7-21.4,21.6
				C173.8,304.4,183.4,314.1,195.2,314.1z"/>
		</g>
		<path class="st2" d="M330.3,352.8c2.2,4.6,4.1,8.8,5.8,12.6c-28.7,11.3-101.3,36.6-173.2,36.6c-23.7,0-47.3-2.7-69.2-9.6
			c-0.9-4.8-1.7-10-2.6-15.5C174.3,407.3,291.7,367.6,330.3,352.8z"/>
		<g>
			<path class="st13" d="M71,406.1c0,0.1,0.1,0.3,0.1,0.4c-6.5,0.7-14.1,1.8-22,3.4l-0.2-0.8C57,407.6,64.7,406.7,71,406.1z"/>
			<path class="st13" d="M31.5,413.3l-12.9-46.6l16-35.6l67.2-111c1.4,0.1,2.7,0.3,4,0.4L38.8,331.1l-16,35.6l12.9,46.6
				c-8.6,2.6-17,6.1-23.9,10.6c1.1,3.8,2.2,7.6,3.3,11.4c-1.3,0.8-2.4,1.7-3.5,2.6c-1.4-4.6-2.8-9.3-4.1-14
				C14.5,419.4,22.8,416,31.5,413.3z"/>
		</g>
		<path class="st5" d="M315.8,394.7c0,0-30.6,55.9-55,61.4c-24.5,5.4-72.2-30.7-72.2-30.7S314.8,372.8,315.8,394.7z"/>
		<g>
			<path class="st7" d="M122.9,224.1c0,0-33.8-10.2-44.6,0.7c-10.8,10.8-89.2,99.9-77,172.2c3.5,20.5,16.7,65,23.3,71.6
				c6.7,6.7,56.6-2.5,56.6-17.5c0-15-19.2-74.1-19.2-74.1s55.8-52.5,60.8-81.6C127.9,266.2,122.9,224.1,122.9,224.1z"/>
			<path class="st2" d="M7.6,424c6.9-4.6,15.2-8,23.9-10.6l-12.9-46.6l16-35.6l67.2-111c5.5,0.5,10.8,1.5,14.7,2.4L51.7,329.3
				c16.1,5.2,25,17.1,29.4,28.4c-4.1,4.4-7.8,8.3-10.9,11.4c-1.8-8.2-7.5-22.9-25.3-27.3l-11.7,26.1L44.8,410
				c9.6-2,18.8-3.2,26.2-3.8c1.3,4.4,2.6,9,3.8,13.5c-19.4,1.6-49.1,6.5-63.1,18.3C10.3,433.4,8.9,428.6,7.6,424z"/>
			<g>
				<path class="st3" d="M61.2,272.1c0,1,0.8,1.8,1.8,1.8c1,0,1.8-0.8,1.8-1.8c0-1-0.8-1.8-1.8-1.8C62,270.3,61.2,271.1,61.2,272.1z
					"/>
				<path class="st3" d="M51.5,287.8c0,1,0.8,1.8,1.8,1.8c1,0,1.8-0.8,1.8-1.8c0-1-0.8-1.8-1.8-1.8
					C52.3,285.9,51.5,286.8,51.5,287.8z"/>
				<path class="st3" d="M41.9,302.2c0,1,0.8,1.8,1.8,1.8s1.8-0.8,1.8-1.8c0-1-0.8-1.8-1.8-1.8S41.9,301.2,41.9,302.2z"/>
			</g>
		</g>
		<g>
			<path class="st3" d="M138.7,494.9c0.2,1,1.2,1.6,2.2,1.4c1-0.2,1.6-1.2,1.4-2.2c-0.2-1-1.2-1.6-2.2-1.4
				C139.2,492.9,138.5,493.9,138.7,494.9z"/>
			<path class="st3" d="M132.3,512.1c0.2,1,1.2,1.6,2.2,1.4c1-0.2,1.6-1.2,1.4-2.2c-0.2-1-1.2-1.6-2.2-1.4
				C132.7,510.2,132.1,511.1,132.3,512.1z"/>
			<path class="st3" d="M125.7,528.1c0.2,1,1.2,1.6,2.2,1.4c1-0.2,1.6-1.2,1.4-2.2c-0.2-1-1.2-1.6-2.2-1.4
				C126.1,526.2,125.5,527.2,125.7,528.1z"/>
		</g>
		<g>
			<g>
				<path class="st7" d="M198,0.7c30.3,1.8,64.6,19.5,83.2,53.6c15.3,28.1,14.6,61,6.4,67.3c-5.2,4-17.3,15.6-17.3,37.9
					c0,32.3,7,22.5,3.3,32.2l-11.4,30.4c-1.3,3.4-4.2,5.8-7.8,6.3c-23.9,3.8-116.9,16.8-171.6-2.1c-2.8-1-5-3-6.1-5.8
					C69.6,202.9,38.4,137,43,95.8C48.4,48.6,65.7-7,198,0.7z"/>
				<path class="st2" d="M82.8,20.3c17,10.9,35.5,28.2,44.2,54.1l-9.8,3.3C108.9,53,90.1,36.9,73.7,27
					C76.5,24.6,79.5,22.4,82.8,20.3z"/>
				<path class="st2" d="M255.8,97.4c-7.8-26.6-3.1-52.2,3.2-70.9c2.9,2.6,5.7,5.3,8.3,8.3c-5,16.6-7.9,38-1.6,59.7L255.8,97.4z"/>
				<path class="st3" d="M80.6,224.8c5.3,3.2,45,9,88.5,8.1c21.5-0.3,51.9-2.3,71.7-4c11-1.4,17.8,0.8,21.4-6.6
					c-0.5,1.9-1.7,3.8-3.3,5.1c-5,4.3-80.4,18.2-137.9,9.8c-7.9-0.9-34.9-6.6-40.9-11.4c-1.7-1.3-2.9-3.1-3.4-5
					C77.5,222.4,79,223.9,80.6,224.8z"/>
				<path class="st6" d="M264.3,87.3c0,0,29.2,14.3,29.2,42.2c0,27.9-7.4,91-52.2,96.8c-44.8,5.8-102.9,9.9-138-25.2
					c-35.1-35.1-32.8-100,0-119.6C113.8,75.3,195.3,71.2,264.3,87.3z"/>
				<path class="st10" d="M249.9,222.3c53.5-7.2,56.3-87.6,56.3-103.7c0-33.7-33-48.7-33.4-48.9c-54.8-27.3-145.5-14.2-160.5-5
					c-14.6,9-24.5,26.8-27.1,49c-3.6,30,6.3,61.2,25.8,81.4C145.9,231.3,201.6,228.8,249.9,222.3z"/>
				<radialGradient id="SVGID_2_" cx="307.5758" cy="92.0609" r="113.1111" gradientUnits="userSpaceOnUse">
					<stop  offset="0" style="stop-color:#F9F9F9;stop-opacity:0.9"/>
					<stop  offset="0.9848" style="stop-color:#231F20"/>
				</radialGradient>
				<path class="st14" d="M277.7,76.4c12.1,4.3,29.2,14.3,29.2,42.2c0,27.9-7.4,91-52.2,96.8c-44.8,5.8-102.9,9.9-138-25.2
					c-35.1-35.1-32.8-100,0-119.6C127.2,64.4,211,52.6,277.7,76.4z"/>
			</g>
			<path class="st15" d="M255.3,126.5c0,4.6,3.7,8.3,8.3,8.3c4.6,0,8.3-3.7,8.3-8.3c0-4.6-3.7-8.3-8.3-8.3
				C259,118.2,255.3,121.9,255.3,126.5z"/>
			<path class="st15" d="M146.7,126.5c0,4.6,3.7,8.3,8.3,8.3c4.6,0,8.3-3.7,8.3-8.3c0-4.6-3.7-8.3-8.3-8.3
				C150.4,118.2,146.7,121.9,146.7,126.5z"/>
			<path class="st15" d="M153.5,158.4c10.2,24.4,34.5,39.8,60.2,38.3c23.2-1.3,43.9-16.3,53-38.3c-19.1,1.6-39.8,2.5-62,2.3
				C186.6,160.5,169.5,159.7,153.5,158.4z"/>
			<path class="st15" d="M481.7,229.7"/>
		</g>
		<path class="st16" d="M246.2,77.6c13.4,2.9,41.4,12.3,44.3,32.1c2.9,19.8-6.5,73-23.2,73c-16.7,0,4.4-53.5-6.6-64.5
			c-11-11-70.6-16-75.1-32.6C181.1,68.9,231.3,74.4,246.2,77.6z"/>
		<g>
			<g>
				<path class="st1" d="M32.5,488.2c0,0-5.5,28.8,2.7,35.6c8.2,6.8,17,0.1,17.7-5.2c0.7-5.4-3.9-28.1-3.9-28.1L32.5,488.2z"/>
				<path class="st6" d="M31.5,495.2c0.5-4.1,1-7,1-7l16.6,2.3c0,0,0.9,4.3,1.8,9.5C42,500,34.7,497.8,31.5,495.2z"/>
			</g>
			<path class="st7" d="M54.2,489.7c0,0,6.1,31,10.6,34c4.5,3,17.6,0.1,19.9-6.1c2.2-6.2-14.9-32.5-14.9-32.5L54.2,489.7z"/>
			<path class="st6" d="M75.6,494.5c-6.4,3.1-13,4.7-19.2,5.3c-1.3-5.6-2.2-10-2.2-10l15.6-4.6C69.9,485.1,72.5,489.2,75.6,494.5z"
				/>
			<path class="st7" d="M74.1,484c0,0,13.1,20.9,18.8,24.7c5.8,3.8,15.9-5.7,14.9-10.7c-1-5-23.2-25.9-23.2-25.9L74.1,484z"/>
			<path class="st6" d="M93.4,480.6C93.4,480.6,93.4,480.6,93.4,480.6c-4.3,5-9,8.8-13.8,11.7c-3.1-4.6-5.5-8.3-5.5-8.3l10.5-12
				C84.6,472,88.7,475.8,93.4,480.6z"/>
			<path class="st7" d="M113.4,452.5c4.1,3.3,1,20.4-9.6,19.5c-10.7-1-25-20.1-25-20.1l0.1-14.6C78.8,437.3,109.3,449.2,113.4,452.5
				z"/>
			<path class="st6" d="M93.4,467c-5.5-4.1-14.7-15.2-14.7-15.2l0.1-14.6c0,0,2.9,1.1,7,2.8C86.8,440.4,94,462.8,93.4,467z"/>
			<path class="st7" d="M75.7,423c7.4,14.6,8.3,18,11.6,26c1.7,4.1,5.8,25.1,2.9,28.5c-20.6,23.9-52.7,19.7-59.7,13.6
				c-3.8-3.3-9.8-24.7-14.8-44.8C33.4,433.5,54.3,425.4,75.7,423z"/>
		</g>
	</g>
	<path class="st5" d="M72.8,437c5.6,6.5,8.8,16.2,7,29.1C78,479,64.1,487.8,60,483.7c-4.1-4.1,6.9-20.2,4.9-28.8
		C62.9,446.3,56.5,418.1,72.8,437z"/>
	<g>
		<g>
			<path class="st1" d="M463.3,137.5c0,0,28.4-16.4,28.1-28.4C491.2,97.2,479.1,94.7,474,98c-5.1,3.3-21,23.8-21,23.8L463.3,137.5z"
				/>
			<path class="st3" d="M468.7,103c2.7,8.3,11.8,14.6,16.7,17.6c-0.6,0.7-1.3,1.4-2,2c-5-3-13.4-9.1-16.8-17.2
				C467.3,104.5,468,103.7,468.7,103z"/>
			<path class="st6" d="M470,133.3c-3.9,2.6-6.7,4.3-6.7,4.3l-10.2-15.7c0,0,3-3.8,6.8-8.5C466.3,120.9,469.8,128.7,470,133.3z"/>
		</g>
		<path class="st1" d="M448.7,118c0,0,21.8-27.8,21-33.8c-0.8-6-12.8-15-19.6-12.4c-6.9,2.6-16.7,36.3-16.7,36.3L448.7,118z"/>
		<path class="st6" d="M437.2,96.5c7.3,3.2,13.5,7.6,18.5,12.3c-3.8,5.2-6.9,9.2-6.9,9.2l-15.3-9.8
			C433.4,108.2,434.9,103,437.2,96.5z"/>
		<path class="st1" d="M429.4,105.4c0,0,8.1-26.3,7.1-33.9c-1-7.6-16.5-9.3-20-4.8c-3.5,4.5-5,38.6-5,38.6L429.4,105.4z"/>
		<path class="st6" d="M412.4,91.6C412.4,91.6,412.4,91.6,412.4,91.6c7.4-0.1,14,1.1,20,3.1c-1.6,6-3,10.7-3,10.7l-17.8-0.1
			C411.5,105.3,411.8,99.1,412.4,91.6z"/>
		<path class="st1" d="M361.5,110.1c-2.8-5.1,7.8-21.5,18.4-15.9c10.6,5.6,17,31.6,17,31.6l-6.4,15
			C390.6,140.8,364.3,115.2,361.5,110.1z"/>
		<path class="st6" d="M381.9,132.2c3.4-6.8,8.2-15.6,10.7-19.7c2.8,7,4.4,13.3,4.4,13.3l-6.4,15
			C390.6,140.8,386.8,137.1,381.9,132.2z"/>
		<path class="st7" d="M376.6,148.6c6.9-17,9.1-20.2,13.5-28.8c2.3-4.4,17-23.3,21.9-23.3c35.3-0.1,55.1,30.2,55.1,40.6
			c0,5.7-13.7,26.3-27.1,45.2C416.3,176.7,394.3,165,376.6,148.6z"/>
		<path class="st3" d="M464.2,96.3c-5.6-1.6-15.7-5.5-21.8-13.2c0.4-1,0.9-1.9,1.3-2.7c5.9,8,17,11.8,22.2,13.2
			C465.4,94.5,464.8,95.4,464.2,96.3z"/>
		<path class="st3" d="M435.5,81.5c-0.1,0.8-0.3,1.5-0.5,2.3c-5.3,0.6-14.5,0.9-21.5-4c0.1-1,0.2-1.9,0.4-2.9
			C420.6,82.8,430.7,82.2,435.5,81.5z"/>
		<path class="st3" d="M371.2,121.3c0.7,0.7,1.3,1.4,2,2.1c8.7-1.2,15.1-9.7,17.9-14.2c-0.4-0.8-0.8-1.6-1.2-2.5
			C387.8,110.5,380.7,121.3,371.2,121.3z"/>
	</g>
	<path class="st2" d="M401.1,126.4c-3.2,6.1,4.4,16.3,16.8,22.7c12.4,6.4,25,6.6,28.2,0.4c3.2-6.1-4.4-16.3-16.8-22.7
		C416.9,120.4,404.3,120.2,401.1,126.4z"/>
</g>
<rect x="187.2" y="278.1" transform="matrix(0.9906 -0.137 0.137 0.9906 -40.883 33.4068)" class="st17" width="69.9" height="71"/>
<g>
	<path class="st18" d="M256.8,313.6l2.9,1.4c-0.1,0.3-5.2,16.7-15.6,18c-5.5,0.7-11.4-0.8-16.8-1.9c-0.3-0.1-4.3-1.2-5-1.4
		c-0.1,0-2.3,2.3-2.5,2.5c-4.1,4.1-16.3,12.4-22.1,9.2c-2.6-1.4-3.2-4.7-3.2-7.4c-0.2-11.1,5.1-12,14.8-10.7
		c3.7,0.5,5.3,0.9,11.8,2.7c0.3,0.1,0.3,0.1,0.8-0.4c1.1-1.1,2.2-3.9,1.9-5.4c-1.2-5.6-10.3-10.8-14.7-13.5c-1.1-0.7-2.2-1.3-3.3-2
		c-22.1-12.6-20.3-12.5-20.3-12.5l2.5-5.7c4.3,1.4,58,8,54.7,18.1c0,0.1-3.8,10-15.8,14.9c0,0.1,0,0.6,0,0.6c0,1.9-0.4,3.6-1.3,5.2
		c-0.1,0.1-1,1.5-1,1.6c0,0.2,5.9,1.5,6.2,1.5c11.2,2.7,15.7,2.4,19.8-3C252.9,322.4,255.9,317.6,256.8,313.6z"/>
	<g>
		<path class="st19" d="M189.3,290.8c0,1,31,17,36.8,25.5c0.2,0.5,11.2-4.1,14.1-12.6C236.9,298.7,199.2,289.8,189.3,290.8
			L189.3,290.8z"/>
	</g>
	<g>
		<path class="st20" d="M187.3,300.6c-0.8,1.2-5,1.1-6.2-0.2c-1.2-1.3,0.4-3.7,2.5-3.7C185.7,296.8,188.1,299.4,187.3,300.6
			L187.3,300.6z"/>
		<path class="st20" d="M190.5,318.7c-0.7,0-1.8,0.2-2.6,0.8c-0.8,0.6-1.4,1.7-1.1,2.5s1.4,1.3,2.4,1.2c1-0.2,1.9-1,2.3-1.8
			c0.4-0.8,0.4-1.6,0.2-2S191.3,318.7,190.5,318.7L190.5,318.7z"/>
		<path class="st21" d="M185.6,299.9c0.6,0.1,11.7,4.9,20.3,9.6c6,3.2,11.5,7.1,11.6,8.6c0.3,2.5-2,1.8-10.3,0.2
			c-8.4-1.6-13.6,0.4-16.4,1.6"/>
	</g>
	<path class="st19" d="M198.9,327.4c-1.6,2.4-2.5,10.9,1.8,11.5c5.5,1.2,15.1-6.7,18.3-10.6C219,328.3,201,323.2,198.9,327.4
		L198.9,327.4z"/>
</g>
</svg>
